<svg width="64" height="64" viewBox="0 0 64 64" fill="none" xmlns="http://www.w3.org/2000/svg">
<path d="M30 15.6922C30 17.2307 29.7564 18.6858 29.2692 20.0576C28.7821 21.4294 27.9744 22.6153 26.8462 23.6153C25.7179 24.6153 24.3718 25.1153 22.8077 25.1153C20.859 25.1153 19.0897 24.3781 17.5 22.9037C15.9103 21.4294 14.7308 19.6922 13.9615 17.6922C13.1923 15.6922 12.8077 13.7563 12.8077 11.8845C12.8077 10.346 13.0513 8.89091 13.5385 7.51912C14.0256 6.14732 14.8333 4.96143 15.9615 3.96143C17.0897 2.96143 18.4359 2.46143 20 2.46143C21.9744 2.46143 23.75 3.19861 25.3269 4.67296C26.9038 6.14732 28.0769 7.87809 28.8462 9.86527C29.6154 11.8525 30 13.7948 30 15.6922ZM16.8462 34.2691C16.8462 36.3204 16.3077 38.1025 15.2308 39.6153C14.1538 41.1281 12.6282 41.8845 10.6538 41.8845C8.70513 41.8845 6.89103 41.173 5.21154 39.7499C3.53205 38.3268 2.24359 36.6153 1.34615 34.6153C0.448718 32.6153 0 30.6666 0 28.7691C0 26.7178 0.538462 24.9294 1.61538 23.4037C2.69231 21.8781 4.21795 21.1153 6.19231 21.1153C8.14103 21.1153 9.95513 21.8268 11.6346 23.2499C13.3141 24.673 14.6026 26.3909 15.5 28.4037C16.3974 30.4166 16.8462 32.3717 16.8462 34.2691ZM32 33.2307C35.0256 33.2307 38.2949 34.4807 41.8077 36.9807C45.3205 39.4807 48.2564 42.5191 50.6154 46.096C52.9744 49.673 54.1538 52.9358 54.1538 55.8845C54.1538 57.064 53.9359 58.0448 53.5 58.8268C53.0641 59.6089 52.4423 60.1858 51.6346 60.5576C50.8269 60.9294 50 61.1858 49.1538 61.3268C48.3077 61.4678 47.3333 61.5384 46.2308 61.5384C44.4872 61.5384 42.0833 60.9614 39.0192 59.8076C35.9551 58.6537 33.6154 58.0768 32 58.0768C30.3077 58.0768 27.8397 58.6473 24.5962 59.7883C21.3526 60.9294 18.7821 61.4999 16.8846 61.4999C12.1923 61.4999 9.84615 59.6281 9.84615 55.8845C9.84615 53.6794 10.5641 51.2242 12 48.5191C13.4359 45.814 15.2244 43.346 17.3654 41.1153C19.5064 38.8845 21.9103 37.0127 24.5769 35.4999C27.2436 33.9871 29.718 33.2307 32 33.2307ZM41.1923 25.1153C39.6282 25.1153 38.2821 24.6153 37.1538 23.6153C36.0256 22.6153 35.2179 21.4294 34.7308 20.0576C34.2436 18.6858 34 17.2307 34 15.6922C34 13.7948 34.3846 11.8525 35.1538 9.86527C35.9231 7.87809 37.0962 6.14732 38.6731 4.67296C40.25 3.19861 42.0256 2.46143 44 2.46143C45.5641 2.46143 46.9103 2.96143 48.0385 3.96143C49.1667 4.96143 49.9744 6.14732 50.4615 7.51912C50.9487 8.89091 51.1923 10.346 51.1923 11.8845C51.1923 13.7563 50.8077 15.6922 50.0385 17.6922C49.2692 19.6922 48.0897 21.4294 46.5 22.9037C44.9103 24.3781 43.141 25.1153 41.1923 25.1153ZM57.8077 21.1153C59.7821 21.1153 61.3077 21.8781 62.3846 23.4037C63.4615 24.9294 64 26.7178 64 28.7691C64 30.6666 63.5513 32.6153 62.6538 34.6153C61.7564 36.6153 60.468 38.3268 58.7885 39.7499C57.109 41.173 55.2949 41.8845 53.3462 41.8845C51.3718 41.8845 49.8462 41.1281 48.7692 39.6153C47.6923 38.1025 47.1538 36.3204 47.1538 34.2691C47.1538 32.3717 47.6026 30.4166 48.5 28.4037C49.3974 26.3909 50.6859 24.673 52.3654 23.2499C54.0449 21.8268 55.859 21.1153 57.8077 21.1153Z" fill="#444B54"/>
</svg>
